<svg width="900" height="620" viewBox="0 0 900 620" fill="none" xmlns="http://www.w3.org/2000/svg">
  <defs>
    <linearGradient id="bg" x1="0" y1="0" x2="900" y2="620" gradientUnits="userSpaceOnUse">
      <stop stop-color="#95C965"/>
      <stop offset="1" stop-color="#4E8C46"/>
    </linearGradient>
    <linearGradient id="wave" x1="0" y1="0" x2="900" y2="0" gradientUnits="userSpaceOnUse">
      <stop stop-color="#F8F8F8"/>
      <stop offset="1" stop-color="#EDEDED"/>
    </linearGradient>
  </defs>
  <rect width="900" height="620" rx="28" fill="url(#bg)"/>
  <rect x="0" y="0" width="900" height="72" fill="#6DB24B" fill-opacity=".92"/>
  <text x="42" y="34" fill="#F1FFE8" font-family="Arial, sans-serif" font-size="14">Natural Beauty by :</text>
  <text x="42" y="58" fill="#F8FFF2" font-family="Arial, sans-serif" font-size="40" font-weight="700">GOC</text>
  <text x="104" y="58" fill="#F8FFF2" font-family="Arial, sans-serif" font-size="22" font-weight="700">cosmetics</text>
  <text x="244" y="52" fill="#F8FFF2" font-family="Arial, sans-serif" font-size="17" font-weight="700">Tentang GOC</text>
  <text x="408" y="52" fill="#F8FFF2" font-family="Arial, sans-serif" font-size="17" font-weight="700">Karir</text>
  <text x="495" y="52" fill="#F8FFF2" font-family="Arial, sans-serif" font-size="17" font-weight="700">Testimoni</text>
  <text x="610" y="52" fill="#F8FFF2" font-family="Arial, sans-serif" font-size="17" font-weight="700">Info &amp; Artikel</text>
  <circle cx="184" cy="194" r="24" stroke="#2DB7E5" stroke-width="8"/>
  <text x="44" y="286" fill="#FFFFFF" font-family="Arial, sans-serif" font-size="54" font-weight="700">Temukan Jalanmu</text>
  <text x="44" y="350" fill="#FFFFFF" font-family="Arial, sans-serif" font-size="54" font-weight="700">untuk Berinovasi dan</text>
  <text x="44" y="414" fill="#FFFFFF" font-family="Arial, sans-serif" font-size="54" font-weight="700">Mewujudkan Mimpi</text>
  <text x="44" y="470" fill="#F6FFF0" font-family="Arial, sans-serif" font-size="22" font-weight="700">Jelajahi dan temukan tujuan karirmu bersama GOC.</text>
  <text x="44" y="506" fill="#F6FFF0" font-family="Arial, sans-serif" font-size="22" font-weight="700">#MimpiInGOC #KerjaDiGOC</text>
  <rect x="510" y="144" width="342" height="310" rx="34" fill="#93C476" fill-opacity=".45" stroke="#A8D28B" stroke-width="12"/>
  <circle cx="710" cy="354" r="166" fill="#2D6F3F" fill-opacity=".22"/>
  <rect x="566" y="246" width="70" height="182" rx="35" fill="#FFF6EE"/>
  <rect x="620" y="224" width="86" height="204" rx="40" fill="#FFF4EF"/>
  <rect x="692" y="176" width="98" height="252" rx="46" fill="#EAC6BE"/>
  <rect x="575" y="288" width="54" height="98" rx="12" fill="#F0DD55"/>
  <path d="M0 485C111 530 257 492 370 498C486 504 562 596 720 558C790 541 844 519 900 540V620H0V485Z" fill="url(#wave)"/>
</svg>
