<svg xmlns="http://www.w3.org/2000/svg" viewBox="0 0 700 900" fill="none">
  <defs>
    <linearGradient id="bg" x1="80" y1="70" x2="620" y2="840" gradientUnits="userSpaceOnUse">
      <stop stop-color="#2A1836"/>
      <stop offset="1" stop-color="#0F0916"/>
    </linearGradient>
    <radialGradient id="glow" cx="0" cy="0" r="1" gradientUnits="userSpaceOnUse" gradientTransform="translate(350 620) rotate(90) scale(220 210)">
      <stop stop-color="#C2A4FF" stop-opacity=".8"/>
      <stop offset="1" stop-color="#C2A4FF" stop-opacity="0"/>
    </radialGradient>
  </defs>
  <rect width="700" height="900" rx="48" fill="url(#bg)"/>
  <circle cx="350" cy="620" r="220" fill="url(#glow)"/>
  <circle cx="350" cy="260" r="110" fill="#EEE8F7"/>
  <path d="M230 470c0-48 39-87 87-87h66c48 0 87 39 87 87v160H230V470Z" fill="#EEE8F7"/>
  <path d="M180 760c24-88 104-150 198-150h0c94 0 174 62 198 150H180Z" fill="#EEE8F7"/>
  <path d="M272 217c29-58 157-61 179 3-13-12-44-23-90-23-34 0-66 8-89 20Z" fill="#120B18"/>
  <text x="350" y="820" fill="#C2A4FF" font-family="Arial, sans-serif" font-size="72" font-weight="700" text-anchor="middle">SG</text>
</svg>
